<?xml version="1.0" encoding="UTF-8" standalone="no"?>
<svg xmlns="http://www.w3.org/2000/svg" width="1200" height="800" version="1.0">
  <defs>
    <filter id="e">
      <feGaussianBlur stdDeviation="2.4998123"/>
    </filter>
    <filter id="f">
      <feGaussianBlur stdDeviation="2.9550357"/>
    </filter>
    <filter id="g">
      <feGaussianBlur stdDeviation="2.5827226"/>
    </filter>
    <filter id="b">
      <feGaussianBlur stdDeviation="11.807199"/>
    </filter>
    <filter id="d">
      <feGaussianBlur stdDeviation="9.2524944"/>
    </filter>
    <filter id="c">
      <feGaussianBlur stdDeviation="10.004847"/>
    </filter>
    <filter id="a" width="1.1955743" height="1.3105409" x="-.09778716" y="-.15527046">
      <feGaussianBlur stdDeviation="23.5338"/>
    </filter>
  </defs>
  <path fill="#aef" d="M1736.268138 879.687464 1249.55181-728.26372l267.991864-81.119388 486.716328 1607.951184z"/>
  <path fill="#fff6d5" d="M1506.560826 949.218368 1019.844498-658.732816l267.991864-81.119388L1774.55269 868.09898z"/>
  <path fill="#ffd5d5" d="M1276.853514 1018.749272 790.137186-589.201912 1058.12905-670.3213l486.716328 1607.951184z"/>
  <path fill="#aef" d="M1047.146202 1088.280176 560.429874-519.671008l267.991864-81.119388 486.716328 1607.951184z"/>
  <path fill="#fff6d5" d="M817.43889 1157.81108 330.722562-450.140104l267.991864-81.119388 486.716328 1607.951184z"/>
  <path fill="#ffd5d5" d="M587.731578 1227.341984 101.01525-380.6092l267.991864-81.119388 486.716328 1607.951184z"/>
  <path fill="#aef" d="M358.024266 1296.872888-128.692062-311.078296l267.991864-81.119388L626.01613 1215.7535z"/>
  <path fill="#fff6d5" d="M128.316954 1366.403792-358.399374-241.547392-90.40751-322.66678l486.716328 1607.951184z"/>
  <path fill="#ffd5d5" d="M-101.390358 1435.934696-588.106686-172.016488l267.991864-81.119388 486.716328 1607.951184z"/>
  <path fill-rule="evenodd" d="M397.14286 976.60584s-13.6012 21.05687-70 28.57146c-56.3988 7.5145-292.857146-34.28574-301.428574-37.14289-8.571428-2.85715-180.139806-65.17033-198.571426-107.14285-18.43162-41.97252.0644-48.03811 19.66471-77.51989s86.02404-72.89275 124.621001-93.90868C10.025532 668.44706 100 642.32013 100 642.32013l297.14286 334.28571z" filter="url(#a)" opacity=".59134617" transform="translate(361.63461 -280.60574)"/>
  <g fill-rule="evenodd">
    <path fill="#ccc" d="M725.92032 698.85725c50.51812 1.83701 60.72742.81633 104.28572-22.85715 44.11073-23.97371 138.52941-144.37705 156.42857-186.42857 17.78776-41.78977 18.43656-74.40538 20.71429-107.85714 2.27773-33.45176-.95313-81.42854-15.71429-115.71429-14.76116-34.28575-47.9924-74.99047-82.85714-102.85714S800.96002 99.17805 760.20604 90.28582c-40.75398-8.89223-73.65926-15.78396-131.42857 4.28571-57.76931 20.06967-136.02281 117.26262-162.85715 161.42857-26.834341 44.16595-33.279341 72.34564-37.142853 108.57143s2.210907 94.69077 14.285714 128.57143c12.074807 33.88066 22.501479 57.11436 62.857139 92.85714s168.73799 110.99309 220 112.85715z"/>
    <path fill="#e6e6e6" d="M130 608.03441c-14.64831-26.30814-17.03446-48.85787-8.57143-75 8.6726-26.78948 91.45441-119.15168 132.85714-140.71428 41.40273-21.5626 69.90395-24.31859 116.42858-17.14286 46.52463 7.17573 159.02509 60.91898 176.42857 85.71429 17.16449 24.45481 17.2701 28.60062 17.14285 62.85714-.12729 34.26662-84.60712 133.38212-125 158.57143-40.39288 25.18931-62.97722 30.63303-112.85714 24.28571S144.48245 634.04467 130 608.03441z" filter="url(#b)" transform="translate(361.63461 -280.60574)"/>
    <path fill="#999" d="M74.285714 660.89156c10.764802-16.323 24.957027-19.81894 52.142856-18.57143 27.16247 1.24644 146.05194 49.81447 185.71429 80s68.4968 67.45253 81.42857 101.42857 15.34898 89.0327 5.71428 112.14286c-9.6347 23.11016-18.8784 29.41643-40.71428 36.42857-23.13465 7.42921-141.52673-55.56866-180-83.57143-38.47327-28.00277-63.42494-51.94134-80.714287-87.14286-17.289351-35.20152-34.124839-124.71182-23.571429-140.71428z" filter="url(#c)" transform="translate(361.63461 -280.60574)"/>
    <path fill="#ececec" d="M407.85714 809.46299c4.44154-36.09792 17.62857-78.83577 42.85715-117.85715 25.22858-39.02138 96.05855-123.57323 132.14285-128.57143 36.0843-4.9982 36.66353 2.61874 51.42857 27.85715 14.76504 25.23841 3.85403 105.96141-2.14285 136.42857-5.99688 30.46716-6.70169 33.55048-25.71429 65.71428s-79.76046 122.20434-114.28571 137.14286c-34.52525 14.93852-51.61875 15.34319-72.14286-4.28571s-16.5844-80.33065-12.14286-116.42857z" filter="url(#d)" transform="translate(361.63461 -280.60574)"/>
  </g>
  <path fill="none" stroke="#ff0" stroke-linecap="round" stroke-width="12.00000095" d="M537.94684586 270.46666455a123.4874572 159.78354638 81.54823723 1 1 316.09657923-46.96891926 123.4874572 159.78354638 81.54823723 1 1-316.09657923 46.96891926z"/>
  <path fill="none" stroke="#ff0" stroke-linecap="round" stroke-width="22.1196785" d="M192.2322 612.84321a159.64938 123.48746 0 0 1 212.32142-174.69923" transform="matrix(-.53748 .0796 -.07986 -.53575 932.54181 520.351241)"/>
  <path fill="#ff0" d="M623.76512409 282.71642162a13.72769336 18.88606791 82.357613 1 1 37.38393181-5.39011168 13.72769336 18.88606791 82.357613 1 1-37.38393181 5.39011168zm73.74114-82.53665a13.72769336 18.88606791 82.357613 1 1 37.38393181-5.39011168 13.72769336 18.88606791 82.357613 1 1-37.38393181 5.39011168z"/>
  <path fill="none" stroke="#6868ff" stroke-linecap="round" stroke-width="12" d="M965.41384935 334.36693386A160.46219345 63.65920037-63.3658603 1 1 821.54608138 621.2371614a160.46219345 63.65920037-63.3658603 1 1 143.86776797-286.87022754z"/>
  <path fill="none" stroke="#6868ff" stroke-linecap="round" stroke-width="34.27590561" d="M490.35369 739.26465a160.46219 63.659199 0 0 1 256.54052 68.33885" transform="matrix(.15523 -.31642 .30952 .15869 563.45619 608.587971)"/>
  <path fill="none" stroke="#6868ff" stroke-linecap="round" stroke-width="12" d="m920.92032 385.285821 34.28572-3.57143m-131.42857 151.42857 34.28571-77.85714"/>
  <path fill="#6969ff" d="M865.76463882 489.7731771a21.33321308 7.86778224-66.69846964 1 1-17.42639377 38.91490522 21.33321308 7.86778224-66.69846964 1 1 17.42639377-38.91490521zm70.71429-82.14286a21.33321308 7.86778224-66.69846964 1 1-17.42639377 38.91490522 21.33321308 7.86778224-66.69846964 1 1 17.42639377-38.91490521z"/>
  <g filter="url(#e)" opacity=".4" transform="translate(364.4917529 -260.647793)">
    <path fill="none" stroke="#000" stroke-linecap="round" stroke-width="12" d="M603.77923935 590.72901286A160.46219345 63.65920037-63.3658603 1 1 459.91147138 877.5992404a160.46219345 63.65920037-63.3658603 1 1 143.86776797-286.87022754z"/>
    <path fill="none" stroke="#000" stroke-linecap="round" stroke-width="34.27590561" d="M490.35369 739.26465a160.46219 63.659199 0 0 1 256.54052 68.33885" transform="matrix(.15523 -.31642 .30952 .15869 201.82158 864.95005)"/>
    <path fill="none" stroke="#000" stroke-linecap="round" stroke-width="12" d="m559.28571 641.6479 34.28572-3.57143M462.14286 789.50504l34.28571-77.85714"/>
    <path d="M504.13002882 746.1352561a21.33321308 7.86778224-66.69846964 1 1-17.42639377 38.91490522 21.33321308 7.86778224-66.69846964 1 1 17.42639377-38.91490521zm70.71429-82.14286a21.33321308 7.86778224-66.69846964 1 1-17.42639377 38.91490522 21.33321308 7.86778224-66.69846964 1 1 17.42639377-38.91490521z"/>
  </g>
  <g filter="url(#f)" opacity=".19230772" transform="translate(371.3488957 -258.362079)">
    <path fill="none" stroke="#000" stroke-linecap="round" stroke-width="12.00000095" d="M176.31223586 526.82874355a123.4874572 159.78354638 81.54823723 1 1 316.09657923-46.96891926 123.4874572 159.78354638 81.54823723 1 1-316.09657923 46.96891926z"/>
    <path fill="none" stroke="#000" stroke-linecap="round" stroke-width="22.1196785" d="M192.2322 612.84321a159.64938 123.48746 0 0 1 212.32142-174.69923" transform="matrix(-.53748 .0796 -.07986 -.53575 570.9072 776.71332)"/>
    <path d="M262.13051409 539.07850062a13.72769336 18.88606791 82.357613 1 1 37.38393181-5.39011168 13.72769336 18.88606791 82.357613 1 1-37.38393181 5.39011168zm73.74114-82.53665a13.72769336 18.88606791 82.357613 1 1 37.38393181-5.39011168 13.72769336 18.88606791 82.357613 1 1-37.38393181 5.39011168z"/>
  </g>
  <path fill="none" stroke="red" stroke-width="12" d="M712.06897261 633.56884272a158.11707391 73.49091482 40.2810789 1 1-241.24930157-204.45735678 158.11707391 73.49091482 40.2810789 1 1 241.24930157 204.45735678z"/>
  <path fill="red" d="M598.18456853 575.08262697a18.63161611 8.63295813 39.51705165 1 1-28.63279976-23.84529664 18.63161611 8.63295813 39.51705165 1 1 28.63279976 23.84529664zm-14.64721-77.27667a18.63161611 8.63295813 39.51705165 1 1-28.63279976-23.84529664 18.63161611 8.63295813 39.51705165 1 1 28.63279976 23.84529664z"/>
  <path fill="none" stroke="red" stroke-linecap="round" stroke-width="24.14985657" d="M280.01657 913.98173a158.11707 73.490913 0 0 1-122.3684-102.16353" transform="matrix(.37956 .32085 -.32167 .37859 854.79909 167.808411)"/>
  <path fill="none" stroke="red" stroke-linecap="round" stroke-width="12" d="m504.06612 438.911181 49.49747 61.11423m-26.76904 46.97209 31.31473-17.17259"/>
  <g filter="url(#g)" opacity=".5" transform="translate(365.9203243 -254.9335076)">
    <path fill="none" stroke="#000" stroke-width="12" d="M350.43436261 889.93092172a158.11707391 73.49091482 40.2810789 1 1-241.24930157-204.45735678 158.11707391 73.49091482 40.2810789 1 1 241.24930157 204.45735678z"/>
    <path d="M236.54995853 831.44470597a18.63161611 8.63295813 39.51705165 1 1-28.63279976-23.84529664 18.63161611 8.63295813 39.51705165 1 1 28.63279976 23.84529664zm-14.64721-77.27667a18.63161611 8.63295813 39.51705165 1 1-28.63279976-23.84529664 18.63161611 8.63295813 39.51705165 1 1 28.63279976 23.84529664z"/>
    <path fill="none" stroke="#000" stroke-linecap="round" stroke-width="24.14985657" d="M280.01657 913.98173a158.11707 73.490913 0 0 1-122.3684-102.16353" transform="matrix(.37956 .32085 -.32167 .37859 493.16448 424.17049)"/>
    <path fill="none" stroke="#000" stroke-linecap="round" stroke-width="12" d="m142.43151 695.27326 49.49747 61.11423m-26.76904 46.97209 31.31473-17.17259"/>
  </g>
</svg>